<svg width="140" height="58" viewBox="0 0 140 58" fill="none" xmlns="http://www.w3.org/2000/svg">
<path d="M-8.01086e-05 12.4051L22.9179 5.31647V47.4981H11.9919L-8.01086e-05 12.4051Z" fill="#ABA9A9"/>
<path d="M47.2573 12.4051L24.3394 5.31647V47.4981H35.2654L47.2573 12.4051Z" fill="#646464"/>
<rect x="17.4106" y="49.0733" width="12.2585" height="3.50055" fill="#737373"/>
<path d="M60.5363 46V12.8776H62.9495V43.8234H82.0185V46H60.5363ZM87.6744 46V15.0542H75.7504V12.8776H102.012V15.0542H90.0876V46H87.6744ZM104.211 46V12.8776H116.088C118.864 12.8776 121.245 13.3193 123.233 14.2025C125.22 15.0858 126.75 16.3634 127.822 18.0353C128.895 19.6756 129.431 21.6787 129.431 24.0446C129.431 26.3474 128.895 28.3347 127.822 30.0066C126.75 31.647 125.22 32.9246 123.233 33.8394C121.245 34.7226 118.864 35.1643 116.088 35.1643H105.536L106.624 34.0286V46H104.211ZM127.207 46L118.595 33.9813H121.34L129.952 46H127.207ZM106.624 34.1706L105.536 33.035H116.088C119.652 33.035 122.349 32.2463 124.179 30.6691C126.04 29.0918 126.971 26.8837 126.971 24.0446C126.971 21.174 126.04 18.9658 124.179 17.4201C122.349 15.8429 119.652 15.0542 116.088 15.0542H105.536L106.624 13.8713V34.1706Z" fill="black"/>
</svg>
